<?xml version="1.0" encoding="utf-8"?>
<!-- Generator: Adobe Illustrator 15.1.0, SVG Export Plug-In . SVG Version: 6.00 Build 0)  -->
<!DOCTYPE svg PUBLIC "-//W3C//DTD SVG 1.1//EN" "http://www.w3.org/Graphics/SVG/1.1/DTD/svg11.dtd">
<svg version="1.1" id="Layer_1" xmlns="http://www.w3.org/2000/svg" xmlns:xlink="http://www.w3.org/1999/xlink" x="0px" y="0px"
	 width="65.833px" height="65.833px" viewBox="0 0 65.833 65.833" enable-background="new 0 0 65.833 65.833" xml:space="preserve">
<path fill="none" stroke="#000000" stroke-width="5" stroke-miterlimit="10" d="M45.99,13.917v27.916c0,0,0.117,2.668,0,4.834
	c-0.094,1.752-1.25,3.975-2.764,4.857c-0.713,0.416-1.92,0.902-3.492,0.988c-3.148,0.172-6.309,0-6.309,0h-1.018
	c0,0-3.16,0.172-6.309,0c-1.572-0.086-2.781-0.572-3.492-0.988c-1.514-0.883-2.67-3.105-2.764-4.857c-0.117-2.166,0-4.834,0-4.834
	V13.917"/>
<circle fill="none" stroke="#000000" stroke-width="5" stroke-miterlimit="10" cx="32.917" cy="33.163" r="29.25"/>
</svg>
