<?xml version="1.0" encoding="utf-8"?>
<!-- Generator: Adobe Illustrator 15.1.0, SVG Export Plug-In . SVG Version: 6.00 Build 0)  -->
<!DOCTYPE svg PUBLIC "-//W3C//DTD SVG 1.1//EN" "http://www.w3.org/Graphics/SVG/1.1/DTD/svg11.dtd">
<svg version="1.1" xmlns="http://www.w3.org/2000/svg" xmlns:xlink="http://www.w3.org/1999/xlink" x="0px" y="0px"
	 width="141.73px" height="141.73px" viewBox="0 0 141.73 141.73" enable-background="new 0 0 141.73 141.73" xml:space="preserve">
<g id="Layer_1" display="none">
</g>
<g id="Layer_2">
	<polygon fill="#FEE866" points="70.865,2.407 75.471,24.093 84.221,3.722 84.508,25.89 97.063,7.618 93.02,29.416 108.898,13.944 
		100.682,34.535 119.271,22.458 107.195,41.049 127.785,32.832 112.314,48.71 134.111,44.667 115.84,57.222 138.008,57.509 
		117.637,66.258 139.324,70.864 117.637,75.473 138.008,84.221 115.84,84.508 134.111,97.064 112.314,93.021 127.785,108.898 
		107.195,100.682 119.271,119.273 100.682,107.195 108.898,127.787 93.02,112.314 97.063,134.113 84.508,115.84 84.221,138.008 
		75.471,117.639 70.865,139.324 66.258,117.639 57.509,138.008 57.222,115.84 44.667,134.113 48.71,112.314 32.832,127.787 
		41.049,107.195 22.458,119.273 34.535,100.682 13.944,108.898 29.416,93.021 7.618,97.064 25.89,84.508 3.722,84.221 
		24.093,75.473 2.407,70.864 24.093,66.258 3.722,57.509 25.89,57.222 7.618,44.667 29.416,48.71 13.944,32.832 34.535,41.049 
		22.458,22.458 41.049,34.535 32.832,13.944 48.71,29.416 44.667,7.618 57.222,25.89 57.509,3.722 66.258,24.093 	"/>
</g>
</svg>
